<svg version="1.2" baseProfile="tiny-ps" xmlns="http://www.w3.org/2000/svg" viewBox="0 0 1280 720" width="1280" height="720">
	<title>template</title>
	<style>
		tspan { white-space:pre }
		.shp0 { fill: #d30ba1 } 
		.shp1 { fill: #f87cd9 } 
		.shp2 { fill: #fe7e6c } 
	</style>
	<path id="Background" class="shp0" d="M0 0L1280 0L1280 720L0 720L0 0Z" />
	<g id="flower">
		<path id="Layer" fill-rule="evenodd" class="shp1" d="M1215.68 332.03C1217.18 406.93 1164.75 490.82 1071.87 492.32C1029.18 493.07 993.98 473.59 967.01 439.14C921.32 380.72 919.08 314.8 952.78 245.15C967.01 258.63 989.48 286.34 1014.2 317.05L1014.2 259.38C1005.96 258.63 1000.72 251.89 1000.72 243.65C1000.72 234.66 1008.21 227.17 1017.19 227.17C1026.18 227.17 1032.92 234.66 1032.92 243.65C1032.92 251.89 1027.68 258.63 1020.19 259.38L1020.19 318.55L1021.69 319.3C1036.67 284.09 1053.15 253.39 1072.62 232.41C1088.35 247.39 1101.83 283.35 1116.06 318.55L1116.81 318.55L1116.81 259.38C1109.32 258.63 1103.33 251.89 1103.33 243.65C1103.33 234.66 1110.82 227.17 1119.81 227.17C1128.8 227.17 1135.54 234.66 1135.54 243.65C1135.54 251.89 1130.29 258.63 1122.8 259.38L1122.8 318.55C1147.52 284.84 1172.24 254.14 1191.71 241.4C1206.69 261.63 1214.18 290.84 1214.93 332.03L1215.68 332.03ZM1062.88 473.59C1049.4 436.89 1026.18 402.44 996.22 391.95C981.24 387.46 974.5 399.44 988.73 421.16C1007.46 448.88 1038.17 463.85 1062.88 473.59ZM1057.64 373.97C1050.9 406.18 1062.13 439.14 1072.62 463.11C1089.85 427.9 1096.59 386.71 1083.11 358.25C1075.62 344.76 1062.88 347.76 1057.64 373.97ZM1164.75 406.18C1168.49 391.2 1157.26 384.46 1135.54 399.44C1107.82 417.42 1092.84 448.88 1083.11 473.59C1120.56 460.11 1154.26 436.14 1164.75 406.18Z" />
	</g>
	<path id="Baby, don't hurt me." fill="#ffffff" aria-label="Baby, don't hurt me."  d="M313.15 404L305.96 404L305.96 383.77L312.44 383.77Q316.43 383.77 318.07 384.79Q319.73 385.83 319.73 388.29Q319.73 390.56 318.1 391.97Q317.11 392.82 315.24 393.46Q317.62 394.17 318.82 395.2Q320.53 396.64 320.53 398.96Q320.53 401.1 319.14 402.52Q318.15 403.54 316.55 403.79Q315.28 404 313.15 404ZM308.83 394.47L308.83 401.85L310.95 401.85Q314.97 401.85 316.24 401.25Q317.5 400.66 317.5 398.76Q317.5 396.67 315.87 395.58Q314.24 394.47 311.17 394.47L308.83 394.47ZM308.83 385.91L308.83 392.65L311.28 392.65Q316.77 392.65 316.77 388.78Q316.77 386.83 315.2 386.31Q314 385.91 311.48 385.91L308.83 385.91ZM332.96 402.11Q330.43 404.34 328.04 404.34Q326.11 404.34 324.89 403.21Q323.68 402.06 323.68 400.27Q323.68 395.22 331.93 395.22L332.56 395.22L332.56 393.43Q332.56 390.85 329.71 390.85Q327.49 390.85 324.96 392.16L324.96 389.93Q327.76 388.82 330.23 388.82Q332.85 388.82 334.05 389.93Q335.26 391.03 335.26 393.43L335.26 400.16Q335.26 402.47 336.68 402.47Q336.87 402.47 337.2 402.41L337.39 403.9Q336.39 404.34 335.39 404.34Q334.46 404.34 333.86 403.82Q333.27 403.32 332.96 402.11ZM332.56 400.65L332.56 396.81L331.67 396.78Q330.85 396.75 329.86 396.9Q326.47 397.38 326.47 399.86Q326.47 402.14 328.94 402.14Q330.66 402.14 332.56 400.65ZM342.75 394.39L342.75 401.96Q344.62 402.32 345.57 402.32Q349.42 402.32 349.42 396.45Q349.42 393.98 348.66 392.58Q347.9 391.18 346.62 391.18Q344.9 391.18 342.75 394.39ZM342.75 382.41L342.75 391.94Q343.51 390.55 344.36 389.84Q345.58 388.82 347.19 388.82Q349.5 388.82 350.91 390.83Q352.33 392.84 352.33 396.18Q352.33 400.08 350.5 402.21Q348.68 404.34 345.33 404.34Q344.09 404.34 342.75 404L340.06 404.16L340.06 382.41L342.75 382.41ZM356.33 409.4L358.66 404L353.4 389.15L356.13 389.15L360.17 400.54L364.6 389.15L366.98 389.15L359.13 409.4L356.33 409.4ZM367.75 408.39L367.75 407.38Q369.07 407.01 369.07 404.27L369.07 404L367.75 404L367.75 400.62L371.13 400.62L371.13 403.55Q371.12 408.02 367.75 408.39ZM391.87 398.78L391.87 391.19Q389.97 390.85 389.07 390.85Q385.2 390.85 385.2 396.73Q385.2 399.16 385.97 400.57Q386.72 401.98 388 401.98Q389.73 401.98 391.87 398.78ZM391.87 404L391.87 401.22Q391.11 402.62 390.26 403.33Q389.06 404.34 387.43 404.34Q385.12 404.34 383.71 402.32Q382.29 400.31 382.29 396.97Q382.29 393.09 384.12 390.96Q385.95 388.82 389.27 388.82Q390.56 388.82 391.87 389.15L391.87 382.41L394.57 382.41L394.57 404L391.87 404ZM404.46 388.82Q407.51 388.82 409.29 390.9Q411.07 392.97 411.07 396.56Q411.07 400.21 409.29 402.28Q407.51 404.34 404.37 404.34Q401.67 404.34 399.99 402.63Q397.86 400.49 397.86 396.58Q397.86 392.98 399.64 390.9Q401.42 388.82 404.46 388.82ZM404.46 390.85Q400.77 390.85 400.77 396.56Q400.77 402.32 404.45 402.32Q408.16 402.32 408.16 396.52Q408.16 390.85 404.46 390.85ZM417.06 404L414.36 404L414.36 389.15L417.06 389.15L417.06 391.94Q418.05 390.56 419.02 389.85Q420.43 388.82 422.11 388.82Q425.89 388.82 425.89 393.34L425.89 404L423.18 404L423.18 394.21Q423.18 392.41 422.81 391.78Q422.43 391.13 421.39 391.13Q419.17 391.13 417.06 394.39L417.06 404ZM431.51 389.84L429.48 389.84L428.81 382.41L432.19 382.41L431.51 389.84ZM440.42 402.17L440.42 404.08Q439.6 404.34 438.88 404.34Q435.25 404.34 435.25 399.9L435.25 391.18L433.57 391.18L433.57 389.15L435.25 389.15L435.25 386.46L437.95 386.2L437.95 389.15L440.82 389.15L440.82 391.18L437.95 391.18L437.95 399.41Q437.95 401.17 438.25 401.74Q438.55 402.32 439.5 402.32Q440.02 402.32 440.42 402.17ZM453.53 404L450.84 404L450.84 382.41L453.53 382.41L453.53 391.94Q454.53 390.56 455.5 389.85Q456.91 388.82 458.59 388.82Q462.36 388.82 462.36 393.34L462.36 404L459.66 404L459.66 394.21Q459.66 392.41 459.29 391.78Q458.91 391.13 457.87 391.13Q455.65 391.13 453.53 394.39L453.53 404ZM477.76 404L475.07 404L475.07 401.22Q474.07 402.61 473.11 403.32Q471.7 404.34 470.02 404.34Q466.25 404.34 466.25 399.82L466.25 389.15L468.94 389.15L468.94 398.94Q468.94 400.73 469.31 401.38Q469.69 402.02 470.73 402.02Q472.95 402.02 475.07 398.78L475.07 389.15L477.76 389.15L477.76 404ZM484.68 404L481.98 404L481.98 389.15L484.68 389.15L484.68 391.94Q485.26 390.53 485.93 389.84Q486.91 388.82 488.25 388.82Q488.5 388.82 489.01 388.89L489.01 391.41Q488.3 391.18 487.86 391.18Q486.37 391.18 484.68 394.21L484.68 404ZM497.31 402.17L497.31 404.08Q496.49 404.34 495.76 404.34Q492.14 404.34 492.14 399.9L492.14 391.18L490.46 391.18L490.46 389.15L492.14 389.15L492.14 386.46L494.83 386.2L494.83 389.15L497.71 389.15L497.71 391.18L494.83 391.18L494.83 399.41Q494.83 401.17 495.14 401.74Q495.44 402.32 496.39 402.32Q496.91 402.32 497.31 402.17ZM510.42 404L507.73 404L507.73 389.15L510.42 389.15L510.42 391.94Q511.61 390.16 512.38 389.54Q513.26 388.82 514.71 388.82Q516.49 388.82 517.6 389.97Q518.24 390.64 518.72 391.94Q519.92 390.14 520.67 389.54Q521.56 388.82 523.03 388.82Q527 388.82 527 393.2L527 404L524.31 404L524.3 393.62Q524.3 391.07 522.33 391.07Q520.58 391.07 518.72 394.05L518.72 404L516.01 404L516.01 393.62Q516.01 391.07 514.03 391.07Q512.28 391.07 510.42 394.05L510.42 404ZM532.99 394.98L540.13 394.98Q540.09 393.64 539.86 392.94Q539.15 390.83 536.77 390.83Q535.11 390.83 534.16 391.82Q533.23 392.76 532.99 394.98ZM542.8 401.39L542.8 403.52Q540.02 404.34 537.71 404.34Q534.22 404.34 532.17 402.18Q530.12 400.02 530.12 396.38Q530.12 392.93 531.94 390.88Q533.75 388.82 536.83 388.82Q540.38 388.82 541.84 391.34Q542.92 393.21 542.88 396.17L542.86 397L532.95 397Q533.12 398.63 533.49 399.47Q534.69 402.29 538.28 402.29Q540.32 402.29 542.8 401.39ZM550.1 404L546.72 404L546.72 400.62L550.1 400.62L550.1 404Z" />
	<path id="What Is Love?" fill="#ffffff" aria-label="What Is Love?"  d="M284.01 356.48L294.3 311.94L300.71 311.94L288.67 363L279.77 363L269.8 320.29L259.45 363L250.55 363L238.51 311.94L245.41 311.94L255.48 356.24L265.94 311.94L273.7 311.94L284.01 356.48ZM305.99 363L305.99 307.25L312.68 307.25L312.68 329.57L313.06 329.57Q316.58 324.88 322.59 324.88Q327.1 324.88 329.8 327.81Q332.49 330.71 332.49 337.3L332.49 363L325.79 363L325.79 337.68Q325.79 334.05 324.34 332.54Q322.9 330.98 320.2 330.98Q318.13 330.98 316.03 332.02Q313.96 333.05 312.68 335.23L312.68 363L305.99 363ZM350.63 324.88Q355.26 324.88 358.19 326.19Q361.12 327.46 362.57 330.47Q364.05 333.43 364.05 338.47L364.05 363L358.53 363L358.02 358.93L357.64 358.93Q356.19 361.31 353.88 362.48Q351.57 363.62 348.63 363.62Q345.6 363.62 343.29 362.41Q340.97 361.17 339.7 358.83Q338.42 356.48 338.42 353.27Q338.42 348.1 341.53 345.27Q344.63 342.4 351.22 341.85L357.5 341.2L357.5 338.16Q357.5 335.19 356.64 333.54Q355.81 331.85 354.08 331.16Q352.36 330.43 349.5 330.43Q347.56 330.43 345.25 330.81Q342.94 331.19 340.73 331.88L340.73 326.33Q342.84 325.64 345.49 325.26Q348.18 324.88 350.63 324.88ZM350.7 358.41Q352.6 358.41 354.36 357.51Q356.15 356.58 357.5 354.48L357.5 345.58L351.84 346.13Q348.39 346.47 346.74 348.06Q345.08 349.65 345.08 352.51Q345.08 355.48 346.53 356.96Q348.01 358.41 350.7 358.41ZM386.72 357.79Q388.2 357.79 390.45 357.34L390.45 363.03Q387.72 363.66 385.2 363.66Q379.68 363.66 376.78 360.72Q373.92 357.79 373.92 351.37L373.92 330.92L367.85 330.92L367.85 325.46L373.92 325.46L375.09 311.94L380.61 311.94L380.61 325.46L390 325.46L390 330.92L380.61 330.92L380.61 350.55Q380.61 353.27 381.24 354.86Q381.89 356.44 383.2 357.13Q384.55 357.79 386.72 357.79ZM416.98 363L410.22 363L410.22 311.94L416.98 311.94L416.98 363ZM433.36 363.69Q428.57 363.69 424.43 362.24L424.43 356.69Q428.88 358.17 433.23 358.17Q436.85 358.17 438.68 356.76Q440.54 355.31 440.54 352.62Q440.54 350.37 439.47 349.17Q438.4 347.96 436.12 347.34L432.02 346.27Q427.6 345.09 425.57 342.58Q423.53 340.06 423.53 335.92Q423.53 332.64 425.12 330.16Q426.71 327.67 429.81 326.29Q432.92 324.88 437.3 324.88Q441.13 324.88 444.85 325.74L444.85 331.29Q442.99 330.81 441.27 330.6Q439.57 330.4 437.61 330.4Q433.61 330.4 431.67 331.92Q429.74 333.43 429.74 335.88Q429.74 337.92 430.78 339.13Q431.85 340.3 434.09 340.92L438.19 341.95Q442.75 343.16 444.75 345.68Q446.75 348.2 446.75 352.41Q446.75 355.89 445.13 358.45Q443.54 361 440.51 362.34Q437.5 363.69 433.36 363.69ZM495.53 363L467.59 363L467.59 311.94L474.35 311.94L474.35 356.89L495.53 356.89L495.53 363ZM511.51 363.69Q504.57 363.69 500.81 359.03Q497.09 354.34 497.09 344.34Q497.09 334.26 500.78 329.57Q504.5 324.88 511.51 324.88Q518.44 324.88 522.17 329.6Q525.93 334.33 525.93 344.3Q525.93 363.69 511.51 363.69ZM511.51 358.41Q513.99 358.41 515.61 357.2Q517.27 355.96 518.13 352.89Q519.03 349.82 519.03 344.44Q519.03 338.92 518.13 335.78Q517.23 332.64 515.61 331.4Q513.99 330.16 511.51 330.16Q509.06 330.16 507.4 331.4Q505.78 332.64 504.88 335.75Q503.99 338.82 503.99 344.2Q503.99 349.72 504.85 352.82Q505.75 355.93 507.37 357.17Q508.99 358.41 511.51 358.41ZM543.87 356.48L552.98 325.46L559.77 325.46L548.15 363L539.35 363L527.72 325.46L534.73 325.46L543.87 356.48ZM588.93 344.3L588.93 346.44L568.81 346.44Q568.92 350.86 569.98 353.41Q571.09 355.93 573.3 357.03Q575.5 358.1 579.09 358.1Q582.61 358.1 587.17 356.79L587.17 362.34Q582.65 363.69 578.33 363.69Q572.68 363.69 569.09 361.76Q565.53 359.79 563.74 355.51Q561.98 351.2 561.98 344.16Q561.98 334.37 565.64 329.64Q569.29 324.88 575.88 324.88Q582.27 324.88 585.58 329.6Q588.93 334.3 588.93 344.3ZM575.85 329.64Q572.54 329.64 570.71 332.36Q568.92 335.09 568.81 341.95L582.51 341.95Q582.44 337.23 581.65 334.54Q580.85 331.81 579.4 330.74Q577.99 329.64 575.85 329.64ZM600.52 349.48L599.38 335.81Q603.59 334.47 606 332.92Q608.42 331.33 609.45 329.4Q610.49 327.43 610.49 324.81Q610.49 320.77 608.14 318.81Q605.8 316.84 600.93 316.84Q595.83 316.84 591.37 318.67L591.37 313.11Q593.31 312.28 596.14 311.8Q598.96 311.28 601.69 311.28Q609.21 311.28 613.11 314.63Q617.04 317.94 617.04 324.22Q617.04 329.5 614.25 333.05Q611.49 336.61 605.38 339.09L604.76 349.48L600.52 349.48ZM602.66 363.48Q600.59 363.48 599.28 362.24Q598 361 598 358.96Q598 356.89 599.28 355.65Q600.55 354.41 602.66 354.41Q604.73 354.41 606 355.69Q607.28 356.93 607.28 358.96Q607.28 360.96 606 362.24Q604.73 363.48 602.66 363.48Z" />
	<path id="Shape 1" class="shp2" d="" />
</svg>